<?xml version="1.0" standalone="no"?>
<!DOCTYPE svg PUBLIC "-//W3C//DTD SVG 20010904//EN"
 "http://www.w3.org/TR/2001/REC-SVG-20010904/DTD/svg10.dtd">
<svg version="1.0" xmlns="http://www.w3.org/2000/svg"
 width="300.000000pt" height="328.000000pt" viewBox="0 0 300.000000 328.000000"
 preserveAspectRatio="xMidYMid meet">
<metadata>
Created by potrace 1.10, written by Peter Selinger 2001-2011
</metadata>
<g transform="translate(0.000000,328.000000) scale(0.100000,-0.100000)"
fill="#000000" stroke="none">
<path d="M1810 3225 c0 -11 11 -96 24 -190 13 -93 34 -246 46 -340 12 -93 30
-233 41 -310 19 -141 39 -328 35 -332 -1 -1 -18 8 -37 20 -19 13 -53 31 -77
42 -41 17 -47 18 -140 2 -53 -8 -105 -19 -115 -23 -18 -7 -19 8 -15 377 l4
384 28 60 c15 33 37 70 49 82 11 13 19 25 16 27 -2 2 -65 0 -139 -5 -74 -5
-196 -6 -270 -3 -158 8 -144 8 -148 -5 -2 -6 10 -19 27 -28 21 -12 35 -30 41
-53 14 -53 30 -331 36 -660 l6 -295 -102 -68 c-102 -67 -246 -144 -254 -136
-7 7 -26 597 -26 811 0 212 8 254 52 281 10 7 18 19 18 28 0 15 -13 16 -107
12 -60 -2 -191 -5 -292 -6 -115 -1 -186 -6 -188 -12 -2 -6 13 -19 32 -29 68
-37 72 -51 84 -351 22 -518 26 -795 11 -795 -23 0 -222 110 -272 150 l-48 38
37 24 c21 12 61 35 88 50 49 26 77 66 38 55 -10 -3 -56 -13 -103 -22 -91 -18
-150 -39 -150 -52 0 -20 94 -171 127 -205 23 -24 86 -62 171 -104 l134 -65 -4
-292 c-4 -278 -5 -294 -26 -335 -23 -44 -104 -111 -134 -112 -11 0 -18 -8 -18
-20 0 -18 7 -20 73 -20 194 -2 517 -20 565 -33 49 -13 52 -13 52 4 0 11 -7 19
-15 19 -8 0 -32 17 -55 38 l-40 39 0 144 c0 79 -3 248 -7 375 l-6 232 42 7
c90 15 246 82 297 127 l21 19 6 -107 c10 -159 8 -562 -3 -697 -14 -165 -43
-233 -122 -283 -31 -20 -36 -27 -29 -46 8 -21 11 -21 177 -19 154 1 300 -7
427 -25 39 -6 47 -4 47 9 0 8 -16 25 -35 37 -41 25 -77 90 -94 168 -7 36 -11
237 -11 617 l0 563 63 21 c69 23 167 38 167 26 0 -4 11 -69 24 -144 21 -120
41 -256 76 -525 6 -43 8 -81 6 -84 -3 -2 -16 8 -30 24 -13 16 -38 45 -56 64
-29 33 -31 33 -26 10 7 -35 51 -291 76 -445 12 -71 32 -193 45 -270 13 -77 33
-198 44 -270 51 -317 58 -359 63 -345 7 19 45 517 54 697 4 73 10 133 13 133
3 0 26 -43 51 -96 25 -52 51 -100 58 -106 9 -8 12 78 13 428 l1 439 60 -123
c39 -80 64 -120 70 -114 7 7 1 146 -16 394 -22 321 -26 454 -26 819 l0 437 63
15 c90 22 140 28 154 19 27 -17 63 -457 63 -768 l0 -220 -32 -42 c-29 -38 -58
-55 -58 -34 0 4 -26 35 -58 70 -44 47 -64 62 -86 62 -33 0 -34 6 29 -98 28
-45 62 -101 76 -125 31 -52 53 -56 157 -26 97 28 195 77 250 124 38 33 42 41
42 83 0 26 11 160 25 297 32 317 32 367 3 408 -20 30 -61 82 -91 117 -8 8 -50
60 -94 115 -44 55 -100 122 -125 149 l-45 50 -124 -44 c-68 -24 -130 -45 -137
-48 -11 -4 -13 13 -10 82 l3 86 -146 0 c-80 0 -194 3 -252 7 -100 6 -107 5
-107 -12z m448 -40 c7 -3 12 -23 12 -53 0 -62 28 -102 70 -102 16 0 53 10 82
23 99 43 136 52 161 38 12 -7 51 -49 87 -93 36 -45 93 -115 128 -157 110 -132
122 -156 122 -228 0 -35 -9 -150 -19 -256 -11 -105 -23 -230 -27 -277 -5 -73
-10 -89 -33 -113 -35 -39 -143 -92 -238 -118 l-77 -21 -23 26 c-29 34 -29 44
1 39 33 -7 72 22 103 74 l26 45 -6 306 c-4 169 -9 323 -12 342 -2 19 -12 98
-20 175 -10 83 -22 149 -31 163 -16 25 -56 44 -76 37 -7 -2 -33 -6 -58 -9 -80
-8 -126 -30 -146 -68 -29 -56 -14 -1022 22 -1390 8 -79 -1 -85 -46 -35 l-29
32 -23 -23 c-23 -22 -23 -24 -28 -363 l-5 -340 -29 30 c-34 36 -47 38 -68 14
-20 -23 -26 -55 -33 -188 -6 -129 -14 -218 -22 -259 -8 -42 -19 -17 -31 69 -8
58 -52 319 -112 671 -14 87 -14 93 10 87 12 -3 29 2 41 13 20 17 21 26 15 104
-9 109 -73 539 -91 608 -7 30 -22 63 -32 74 -17 19 -16 19 37 -2 84 -33 89
-34 112 -14 19 17 20 27 15 104 -3 47 -15 150 -26 230 -11 80 -30 219 -41 310
-12 91 -30 228 -41 305 -22 161 -23 192 -8 197 14 5 370 -2 387 -7z m-678
-219 c0 -7 -10 -35 -22 -62 -22 -47 -23 -61 -26 -409 -2 -328 -1 -363 15 -395
13 -25 27 -36 47 -40 l28 -5 -41 -33 -41 -33 0 -564 c0 -591 2 -623 46 -722
13 -30 18 -53 12 -55 -5 -2 -46 0 -91 4 -45 4 -144 8 -219 8 -76 0 -138 2
-138 6 0 3 13 22 30 42 29 37 58 97 66 136 15 74 24 289 23 516 -1 309 -8 384
-38 414 l-21 20 -83 -42 c-45 -23 -127 -57 -182 -75 -79 -25 -102 -37 -113
-57 -10 -20 -11 -100 -7 -379 4 -194 11 -364 16 -378 15 -41 12 -43 -63 -38
-40 3 -138 7 -217 10 -79 2 -146 7 -149 9 -2 3 11 23 31 46 57 67 62 101 62
412 l0 276 -25 27 c-14 15 -75 51 -137 82 -61 30 -124 68 -139 84 -35 37 -28
36 37 -2 89 -52 168 -89 191 -89 12 0 32 10 45 22 32 30 31 65 -3 908 -5 130
-11 173 -25 201 l-18 36 46 7 c57 8 353 8 353 0 0 -3 -5 -15 -12 -27 -13 -24
-15 -609 -3 -882 7 -161 18 -196 63 -203 41 -6 290 137 351 202 23 25 23 25
23 308 -1 272 -16 587 -32 675 -9 51 -23 47 198 50 131 2 162 0 162 -11z"/>
</g>
</svg>
